<svg xmlns="http://www.w3.org/2000/svg" xmlns:xlink="http://www.w3.org/1999/xlink" viewBox="0 0 589.0724 220.38657" width="134px" height="50px">
    <defs><style>.a{fill:none;}.b{isolation:isolate;}.c{fill:#073042;}.d{fill:#3ddc84;}.e,.g{opacity:0.1;}.f{clip-path:url(#a);}.g{mix-blend-mode:multiply;}.h{fill:#fff;}</style>
    <clipPath id="a">
        <path class="a" d="M180.623,64.40369s-27.99353-12.586-53.08109-16.70607c-25.099,4.04955-53.12784,16.55683-53.12784,16.55683s-17.9,72.04545,52.95235,108.32619C198.3205,136.49917,180.623,64.40369,180.623,64.40369Z"/></clipPath></defs>
    <g class="b">
        <path class="c" d="M479.65413.00037H109.97443A109.82114,109.82114,0,0,0,.00037,109.41861c-.15593,60.48651,48.9313,110.81133,109.41781,110.9676h369.6797A109.82124,109.82124,0,0,0,589.072,110.96813C589.22788,50.48145,540.14065.15663,479.65413.00037Z"/>
        <path class="d" d="M127.36641,172.58064l.17549-124.883C152.62946,51.81777,180.623,64.40376,180.623,64.40376S198.3205,136.49924,127.36641,172.58064ZM74.41407,64.25452S56.51392,136.3,127.36646,172.58063l.17529-124.88306C102.44288,51.74726,74.41407,64.25452,74.41407,64.25452Zm132.29365,6.99971c.00931-6.62584,4.83556-12.04071,11.18244-12.03178a9.24342,9.24342,0,0,1,7.40889,3.57881l.00436-3.10439,5.09665.00716-.03256,23.167-3.38814-.00476a1.70853,1.70853,0,0,1-1.70612-1.71092l.002-1.39587a9.24342,9.24342,0,0,1-7.41892,3.558C211.5094,83.30848,206.6984,77.88006,206.70772,71.25423Zm18.99645.0267c.00587-4.17049-2.81593-7.41695-6.89344-7.42269s-6.90843,3.23279-6.91429,7.40328,2.81594,7.417,6.89344,7.42269S225.69831,75.45142,225.70417,71.28093Zm10.785-11.56834,5.09665.00717-.00442,3.15042a7.92774,7.92774,0,0,1,7.048-3.60452c5.37469.00755,8.84476,3.81283,8.83649,9.69664L257.44624,82.909l-3.38814-.00476a1.70852,1.70852,0,0,1-1.70611-1.71092l.016-11.40414c.00521-3.70649-1.8459-5.88641-4.81127-5.89058-3.38243-.00475-5.98044,2.586-5.98747,7.59055l-.016,11.39751-3.38814-.00476A1.70853,1.70853,0,0,1,236.459,81.171Zm25.31048,11.61908c.00932-6.62583,4.83556-12.0407,11.18337-12.03178a9.24006,9.24006,0,0,1,7.408,3.57882l.02065-14.68787,5.09665.00717-.04885,34.75042-3.38813-.00476a1.70852,1.70852,0,0,1-1.70612-1.71092l.002-1.39588a9.24,9.24,0,0,1-7.418,3.558C266.60134,83.38592,261.79034,77.95751,261.79965,71.33167Zm18.99738.02671c.00586-4.17049-2.81594-7.417-6.89437-7.42269-4.07659-.00573-6.9075,3.23278-6.91337,7.40328s2.81594,7.417,6.89253,7.42268C277.96025,78.76739,280.79117,75.52887,280.797,71.35838ZM291.5811,59.79l5.09666.00716-.0058,4.12355a6.51769,6.51769,0,0,1,6.12285-4.34695,9.04456,9.04456,0,0,1,1.992.18877l-.00736,5.23475a6.85245,6.85245,0,0,0-2.54774-.41971c-2.91935-.0041-5.56411,2.44753-5.57062,7.0811l-.0159,11.30545-3.38814-.00477a1.70851,1.70851,0,0,1-1.70611-1.71092Zm15.09324,11.60472A12.1399,12.1399,0,1,1,318.797,83.4593,11.9572,11.9572,0,0,1,306.67434,71.39476Zm19.08944.02683c.0058-4.12354-2.8621-7.325-6.93961-7.33069-4.12446-.0058-7.00134,3.18754-7.00714,7.31109s2.8621,7.325,6.98656,7.33075C322.8811,78.73847,325.758,75.54513,325.76378,71.42159Zm8.76783-20.05027a3.4415,3.4415,0,0,1,3.43321-3.37761,3.40553,3.40553,0,0,1-.00957,6.81089A3.4501,3.4501,0,0,1,334.53161,51.37132Zm.86821,8.48032,5.09666.00716-.03257,23.167-3.38814-.00476a1.70853,1.70853,0,0,1-1.70612-1.71092Zm9.56572,11.59694c.00932-6.62583,4.83556-12.0407,11.18429-12.03177a9.24284,9.24284,0,0,1,7.408,3.57881l.02065-14.68787,5.09665.00717-.04885,34.75042-3.38813-.00476a1.70852,1.70852,0,0,1-1.70612-1.71092l.002-1.39587a9.24287,9.24287,0,0,1-7.418,3.558C349.76723,83.50284,344.95623,78.07442,344.96554,71.44858Zm18.99738.02671c.00586-4.17049-2.81594-7.417-6.89345-7.42269s-6.90842,3.23279-6.91429,7.40328,2.81594,7.417,6.89345,7.42269S363.95706,75.64578,363.96292,71.47529Z"/>
        <path class="e" d="M180.62305,64.40375s-27.99365-12.586-53.0813-16.70618l-.17529,124.88306C198.32056,136.49921,180.62305,64.40375,180.62305,64.40375Z"/>
    <g class="f"><polygon class="g" points="142.233 169.026 101.123 127.8 110.318 114.838 117.293 92.051 118.656 80.551 127.881 78.491 136.225 78.56 147.759 90.127 153.589 89.592 194.699 130.818 142.233 169.026"/>
    </g>
    <path class="h" d="M149.75245,88.00828l-10.97816-.01543.0049-3.4818a8.26435,8.26435,0,0,0-8.2435-8.26643l-6.26-.0088a8.26429,8.26429,0,0,0-8.26643,8.24323l-.00489,3.4818-10.97816-.01542A5.54831,5.54831,0,0,0,99.47,93.48592l-.04258,30.3014a5.54832,5.54832,0,0,0,5.54062,5.55608l44.7262.06285a5.5483,5.5483,0,0,0,5.55609-5.54049l.04257-30.3014A5.54827,5.54827,0,0,0,149.75245,88.00828Zm-22.39877,25.29989a5.66076,5.66076,0,1,1,5.66878-5.6528A5.66076,5.66076,0,0,1,127.35368,113.30817Zm6.00726-25.32293-11.94319-.01678.00489-3.4818a2.84456,2.84456,0,0,1,2.84547-2.83749l6.26.0088a2.84478,2.84478,0,0,1,2.83775,2.84547Zm85.13952,39.93744c-6.90722,0-11.86718-5.09961-11.86718-12.05274,0-6.86133,4.77441-12.05273,11.91357-12.05273,7.09228,0,12.05225,5.42383,11.58887,13.30371H211.686a6.60609,6.60609,0,0,0,6.99951,6.30469c2.54981,0,4.7749-1.01954,5.84082-3.24512h5.33106C228.55954,124.53791,224.38767,127.92268,218.50046,127.92268Zm-6.62939-14.417H224.6655c-.78808-3.75488-3.43017-5.42382-6.25781-5.42382A6.34528,6.34528,0,0,0,211.87107,113.50568Zm22.77637-9.22461h5.0996v3.15137a7.97613,7.97613,0,0,1,7.0459-3.61523c5.37744,0,8.854,3.80078,8.854,9.68847v13.95313h-5.09912V114.33967c0-3.66211-1.8545-5.88672-4.82129-5.88672-3.38379,0-5.9795,2.64258-5.9795,7.60254v11.40332h-5.0996Zm36.60937,23.40918c-4.45019,0-7.92676-2.457-7.92676-7.69433V108.824h-4.82129v-4.543h4.82129V97.83674h5.09912v6.44433h6.62891v4.543h-6.62891V119.161c0,2.874,1.25147,3.94043,3.89356,3.94043a8.23178,8.23178,0,0,0,2.73535-.46387v4.543A12.35794,12.35794,0,0,1,271.25681,127.69025Zm17.73682.23243c-6.90723,0-11.86719-5.09961-11.86719-12.05274,0-6.86133,4.77441-12.05273,11.91357-12.05273,7.09229,0,12.05225,5.42383,11.58887,13.30371H282.17917a6.60609,6.60609,0,0,0,6.99952,6.30469c2.5498,0,4.7749-1.01954,5.84082-3.24512h5.331C299.05271,124.53791,294.88083,127.92268,288.99363,127.92268Zm-6.6294-14.417h12.79444c-.78809-3.75488-3.43018-5.42382-6.25782-5.42382A6.34528,6.34528,0,0,0,282.36423,113.50568Zm22.77637-9.22461h5.09961v4.125a6.521,6.521,0,0,1,6.11865-4.35742,10.00979,10.00979,0,0,1,1.99365.18555v5.23828a7.939,7.939,0,0,0-2.5498-.417c-2.92041,0-5.5625,2.457-5.5625,7.09277v11.31055H305.1406Zm16.62891,0h5.09961v3.10547a9.34267,9.34267,0,0,1,7.46289-3.56933c6.35107,0,11.17187,5.42383,11.17187,12.05273s-4.8208,12.05274-11.17187,12.05274a9.34549,9.34549,0,0,1-7.46289-3.56934v12.79395h-5.09961Zm11.63574,4.17188c-4.126,0-6.95362,3.24512-6.95362,7.417s2.82764,7.417,6.95362,7.417c4.0791,0,6.90674-3.24511,6.90674-7.417S337.48435,108.453,333.40525,108.453Zm16.64306-4.17188h5.09913v4.125a6.522,6.522,0,0,1,6.11914-4.35742,10.01316,10.01316,0,0,1,1.99365.18555v5.23828a7.939,7.939,0,0,0-2.54981-.417c-2.92041,0-5.563,2.457-5.563,7.09277v11.31055h-5.09913Zm19.18311-5.05273a3.4073,3.4073,0,1,1,0-6.81445,3.40731,3.40731,0,0,1,0,6.81445Zm-2.5498,5.05273h5.0996v23.17774h-5.0996Zm19.40966,23.64161c-5.42334,0-9.64209-2.874-9.91992-7.50977H381.456c.417,2.50293,2.50293,3.42969,4.77441,3.42969,2.2251,0,3.75489-.87988,3.75489-2.45606s-1.01954-2.457-3.43018-3.05957l-3.80127-1.0205c-3.98682-1.01954-5.93359-3.61524-5.93359-6.999,0-3.89453,3.43017-6.49023,8.62207-6.49023,5.00683,0,8.4834,2.78125,8.854,6.95312h-5.09912a3.64537,3.64537,0,0,0-3.80127-2.874c-1.94678,0-3.38379.88086-3.38379,2.36426s1.15869,2.27148,3.106,2.78125l3.89355,1.0205c4.17237,1.06543,6.16553,3.47657,6.16553,6.999C395.17722,125.55842,391.28318,127.92268,386.09128,127.92268Zm23.86084,0c-6.90722,0-11.86718-5.09961-11.86718-12.05274,0-6.86133,4.77441-12.05273,11.91308-12.05273,7.09277,0,12.05274,5.42383,11.58936,13.30371H403.13767a6.60639,6.60639,0,0,0,6.99951,6.30469c2.54981,0,4.7749-1.01954,5.84082-3.24512h5.33106C420.0112,124.53791,415.83933,127.92268,409.95212,127.92268Zm-6.6289-14.417h12.79394c-.78808-3.75488-3.43017-5.42382-6.25781-5.42382A6.34447,6.34447,0,0,0,403.32322,113.50568ZM208.25535,148.68147h5.09912v4.125a6.52205,6.52205,0,0,1,6.11914-4.35743,10.01316,10.01316,0,0,1,1.99365.18555v5.23828a7.939,7.939,0,0,0-2.54981-.417c-2.92041,0-5.563,2.457-5.563,7.09277V171.8592h-5.09912Zm27.022,23.6416c-6.90723,0-11.86719-5.09961-11.86719-12.05274,0-6.86133,4.77441-12.05273,11.91309-12.05273,7.09277,0,12.05273,5.42383,11.58935,13.30371h-18.4497a6.60638,6.60638,0,0,0,6.99951,6.30469c2.5498,0,4.7749-1.01953,5.84082-3.24512h5.33105C245.3364,168.9383,241.16453,172.32307,235.27732,172.32307Zm-6.62891-14.417h12.79395c-.78809-3.75488-3.43018-5.42382-6.25782-5.42382A6.34447,6.34447,0,0,0,228.64841,157.90607Zm33.48438,14.417a12.05309,12.05309,0,1,1,0-24.10547,11.65938,11.65938,0,0,1,11.77441,8.94629h-5.37695a6.54663,6.54663,0,0,0-6.39746-4.31055c-4.12549,0-6.95313,3.10547-6.95313,7.417,0,4.31055,2.82764,7.417,6.95313,7.417a6.54614,6.54614,0,0,0,6.39746-4.31152h5.37695A11.66017,11.66017,0,0,1,262.13279,172.32307Zm26.6748,0a12.05309,12.05309,0,1,1,12.14551-12.05274A11.96233,11.96233,0,0,1,288.80759,172.32307Zm0-4.72852c4.07959,0,6.95361-3.19824,6.95361-7.32422s-2.874-7.32422-6.95361-7.32422c-4.12549,0-6.99951,3.19825-6.99951,7.32422S284.6821,167.59455,288.80759,167.59455Zm16.644-18.91308h5.09913v3.15136a7.86484,7.86484,0,0,1,13.76806.97364,8.09224,8.09224,0,0,1,7.417-4.58887c5.23829,0,8.34424,3.84765,8.34424,9.78125V171.8592h-5.09912V158.83283c0-3.61523-1.34473-5.97949-4.126-5.97949-3.291,0-5.51611,2.73438-5.51611,7.60254V171.8592h-5.09961V158.83283c0-3.61523-1.34424-5.97949-4.12549-5.97949-3.2915,0-5.563,2.73438-5.563,7.60254V171.8592h-5.09913Zm40.47559,0h5.09912v3.15136a7.86484,7.86484,0,0,1,13.76807.97364,8.09223,8.09223,0,0,1,7.417-4.58887c5.23828,0,8.34424,3.84765,8.34424,9.78125V171.8592h-5.09912V158.83283c0-3.61523-1.34473-5.97949-4.126-5.97949-3.291,0-5.51611,2.73438-5.51611,7.60254V171.8592h-5.09961V158.83283c0-3.61523-1.34424-5.97949-4.12549-5.97949-3.2915,0-5.563,2.73438-5.563,7.60254V171.8592h-5.09912Zm50.8457,23.6416c-6.90722,0-11.86718-5.09961-11.86718-12.05274,0-6.86133,4.77441-12.05273,11.91357-12.05273,7.09229,0,12.05225,5.42383,11.58887,13.30371H389.95847A6.60609,6.60609,0,0,0,396.958,167.826c2.54981,0,4.7749-1.01953,5.84082-3.24512h5.33106C406.832,168.9383,402.66013,172.32307,396.77292,172.32307Zm-6.62939-14.417H402.938c-.78808-3.75488-3.43017-5.42382-6.25781-5.42382A6.34528,6.34528,0,0,0,390.14353,157.90607Zm22.77637-9.2246h5.09961v3.15136a7.9761,7.9761,0,0,1,7.04589-3.61523c5.37745,0,8.854,3.80078,8.854,9.68847V171.8592h-5.09912V158.74006c0-3.66211-1.8545-5.88672-4.82129-5.88672-3.38379,0-5.97949,2.64258-5.97949,7.60254V171.8592H412.9199Zm36.45166-.46387a9.24709,9.24709,0,0,1,7.417,3.56933V137.09162h5.09912V171.8592h-5.09912v-3.10547a9.24987,9.24987,0,0,1-7.417,3.56934c-6.35108,0-11.17188-5.42383-11.17188-12.05274S443.02048,148.2176,449.37156,148.2176Zm.92675,4.63574c-4.12548,0-6.90673,3.24512-6.90673,7.417s2.78125,7.417,6.90673,7.417c4.126,0,6.90723-3.24511,6.90723-7.417S454.42429,152.85334,450.29831,152.85334ZM478.397,172.32307c-6.90723,0-11.86719-5.09961-11.86719-12.05274,0-6.86133,4.77441-12.05273,11.91357-12.05273,7.09229,0,12.05225,5.42383,11.58887,13.30371H471.58249A6.60609,6.60609,0,0,0,478.582,167.826c2.5498,0,4.7749-1.01953,5.84082-3.24512h5.33105C488.456,168.9383,484.28415,172.32307,478.397,172.32307Zm-6.6294-14.417H484.562c-.78809-3.75488-3.43018-5.42382-6.25782-5.42382A6.34528,6.34528,0,0,0,471.76755,157.90607Zm32.51172-9.68847a9.24709,9.24709,0,0,1,7.417,3.56933V137.09162h5.09912V171.8592h-5.09912v-3.10547a9.24987,9.24987,0,0,1-7.417,3.56934c-6.35107,0-11.17187-5.42383-11.17187-12.05274S497.9282,148.2176,504.27927,148.2176Zm.92676,4.63574c-4.12549,0-6.90674,3.24512-6.90674,7.417s2.78125,7.417,6.90674,7.417c4.126,0,6.90723-3.24511,6.90723-7.417S509.332,152.85334,505.206,152.85334Z"/>
    </g>
</svg>