<?xml version="1.0" encoding="UTF-8"?>
<svg width="71px" height="71px" viewBox="0 0 71 71" version="1.1" xmlns="http://www.w3.org/2000/svg" xmlns:xlink="http://www.w3.org/1999/xlink">
    <!-- Generator: Sketch 55.2 (78181) - https://sketchapp.com -->
    <title>icon-security-why_secure</title>
    <desc>Created with Sketch.</desc>
    <g id="MASTER-B2B-Desktop" stroke="none" stroke-width="1" fill="none" fill-rule="evenodd">
        <g id="Security_02_Infographic" transform="translate(-225.000000, -400.000000)" stroke="#FFFFFF" stroke-width="2">
            <g id="Infographic" transform="translate(90.000000, 340.000000)">
                <g id="icon-security-why_secure" transform="translate(136.000000, 61.000000)">
                    <polyline id="Stroke-1" points="63.2981731 5.49613462 63.2981731 16.42825 52.3660577 16.4269038"></polyline>
                    <g id="Group-14" transform="translate(0.000000, 0.036538)">
                        <path d="M0,34.482 C0,15.6075769 15.2963462,0.308538462 34.1721154,0.308538462 C44.2440385,0.308538462 53.2996154,4.66738462 59.5538462,11.6000769 C60.795,12.9771923 61.9284615,14.4593077 62.9353846,16.0275769" id="Stroke-2"></path>
                        <polyline id="Stroke-4" points="5.15388462 63.1614038 5.15388462 52.5739038 15.7413846 52.57525"></polyline>
                        <path d="M68.3474615,34.482 C68.3474615,53.3564231 53.0511154,68.6541154 34.1753462,68.6541154 C24.1034231,68.6541154 15.0478462,64.2939231 8.79361538,57.3652692 C7.55111538,55.9854615 6.419,54.5046923 5.41207692,52.9377692" id="Stroke-6"></path>
                        <path d="M46.1267692,28.3955 L46.1267692,38.9991538 C46.1267692,45.3947308 40.8942692,50.6285769 34.4973462,50.6285769 C28.1017692,50.6285769 22.8692692,45.3947308 22.8692692,38.9991538 L22.8692692,28.3955 L46.1267692,28.3955 Z" id="Stroke-8" stroke-linecap="round"></path>
                        <path d="M43.8012885,28.1219615 C43.8012885,23.0052308 39.61475,18.8200385 34.4980192,18.8200385 C29.3812885,18.8200385 25.19475,23.0052308 25.19475,28.1219615" id="Stroke-10" stroke-linecap="round"></path>
                        <path d="M38.2174423,37.2164423 C38.2174423,35.1635577 36.55225,33.4956731 34.4980192,33.4956731 C32.4437885,33.4956731 30.7785962,35.1635577 30.7785962,37.2164423 C30.7785962,38.6649038 31.6078269,39.9181731 32.8166731,40.5320192 L32.8166731,44.2689423 L36.1780192,44.2689423 L36.1780192,40.5320192 C37.3868654,39.9181731 38.2174423,38.6649038 38.2174423,37.2164423 Z" id="Stroke-12" stroke-linecap="round"></path>
                    </g>
                </g>
            </g>
        </g>
    </g>
</svg>