<svg height="65" viewBox="0 0 364.61 364.64" width="65" xmlns="http://www.w3.org/2000/svg"><path d="m130.24 170.68-5.45 8.89c-.28-.19-.51-.36-.74-.53-3.58-2.69-7.48-4.42-12.08-4.3a12.85 12.85 0 0 0 -12.71 12.12 16.29 16.29 0 0 0 1.32 8.1c3.07 6.8 10.38 9.66 17.5 6.88a21.9 21.9 0 0 0 6.7-4.18l.74-.65 6 8.55a24.59 24.59 0 0 1 -11.84 7c-8.93 2.21-17.26 1-24.45-5-4.78-4-7.22-9.4-7.92-15.55a24.56 24.56 0 0 1 4.08-17.36 23.87 23.87 0 0 1 17.45-10.35 26.72 26.72 0 0 1 17.61 3.62c1.29.79 2.49 1.81 3.79 2.76zm44.41.54a.86.86 0 0 0 -.14-.8 23.19 23.19 0 0 0 -2.54-2 26.72 26.72 0 0 0 -18.37-4.11 23.79 23.79 0 0 0 -17.35 10.19 24.59 24.59 0 0 0 -4.15 18c.83 6.37 3.48 11.91 8.69 15.78 8.86 6.57 18.46 7 28.38 2.56a23 23 0 0 0 7.1-5.21c-2-2.88-4-5.71-6-8.57a22.19 22.19 0 0 1 -6.44 4.43c-4.71 2.06-9.38 2.17-13.77-.77a13.77 13.77 0 0 1 -6-10.63c-.93-9.77 6.26-16.86 16.36-15a20.78 20.78 0 0 1 9.13 4.55c1.73-2.87 3.45-5.64 5.1-8.42zm39-2.56c-7.18-5-14.91-6.14-23-2.77-5.78 2.41-8.76 7.6-8.41 13.86.25 4.34 2.6 7.46 6.07 9.86 2.91 2 6.23 3.24 9.43 4.68a31.52 31.52 0 0 1 4.83 2.59 3 3 0 0 1 -.29 5 7.26 7.26 0 0 1 -2.71.88 13.27 13.27 0 0 1 -8.1-2c-1.89-1.1-3.65-2.42-5.53-3.69l-6.1 8.45a25.12 25.12 0 0 0 18.9 8 18 18 0 0 0 11.1-3.43c6.39-4.82 7.56-14.33 2.31-19.94a18.39 18.39 0 0 0 -4.74-3.55c-2.53-1.35-5.28-2.32-7.89-3.53a27.49 27.49 0 0 1 -4.51-2.42 2.81 2.81 0 0 1 -.05-4.52 5.54 5.54 0 0 1 1.88-1 9.65 9.65 0 0 1 5.43.11 20.18 20.18 0 0 1 7.35 3.74c1.65-3.19 3.28-6.33 4.93-9.53-.27-.28-.55-.57-.85-.79zm-7.8 68.67a13.41 13.41 0 0 0 -8.58-2.21c-6.08.23-10.35 3.16-12.72 8.76a21.63 21.63 0 0 0 -1.24 12c1.24 8 6.9 14.3 16.26 13.61a10.42 10.42 0 0 0 8.23-4.49c.16-.23.34-.46.54-.72 0 2.2.17 4.34 0 6.44-.38 3.71-2.57 6-6.1 7.15a15.52 15.52 0 0 1 -8 .18c-2-.42-3.9-1.11-5.91-1.7l-2 4.89a25.74 25.74 0 0 0 15.16 2.61 16.62 16.62 0 0 0 9-3.9c3.43-3.07 4.63-7.05 4.62-11.51v-31.55c0-.32 0-.63-.05-.94h-6.14v4a32.42 32.42 0 0 0 -3.02-2.62zm2.08 19.9c-.9 3.49-3 5.88-6.73 6.44-4.05.62-7.48-.62-9.6-4.23a14.83 14.83 0 0 1 -.57-14.2c1.54-3.39 5-5.05 8.92-4.63 5.11.54 8 3.43 8.46 8.57.1 1 .16 1.92.23 2.88h.13c-.22 1.74-.36 3.49-.77 5.17zm21.42 11.64c0-4.93 0-9.87 0-14.81a23.1 23.1 0 0 1 .2-2.88 11.33 11.33 0 0 1 12-10.1 5.15 5.15 0 0 1 5 3.91 9.86 9.86 0 0 1 .48 2.74c.07 7 .08 14 .11 21v1.27h6.44c0-.36.05-.65.05-1 0-6.8 0-13.61 0-20.42a31.28 31.28 0 0 0 -.3-4.22c-.64-4.77-3.24-7.78-7.6-8.79a17.09 17.09 0 0 0 -2.86-.37 13.72 13.72 0 0 0 -13.17 6.93c-.11.18-.25.33-.46.62v-20.24h-6.24v47.41h6.41zm-94.48.15c0-6.93 0-13.86 0-20.79a27 27 0 0 0 -.41-4.66c-.66-3.6-2.48-6.37-6.07-7.69a14.88 14.88 0 0 0 -5.69-.77 13.65 13.65 0 0 0 -11.87 7c-.13.22-.28.42-.55.84v-7h-6.09v33.94h6.39v-1.1c0-4.88 0-9.76 0-14.64a23.21 23.21 0 0 1 .24-3.33 11.19 11.19 0 0 1 11.9-9.77 5.21 5.21 0 0 1 5.16 4 10.16 10.16 0 0 1 .47 2.83c.06 7 .06 13.92.08 20.88 0 .37.05.74.07 1.12h6.38zm25 .07c4.44-2.4 6.33-7.36 4.43-11.74a10.32 10.32 0 0 0 -5.15-5c-1.77-.89-3.65-1.56-5.44-2.41a29.78 29.78 0 0 1 -4.85-2.54 3.42 3.42 0 0 1 .41-5.76 6.25 6.25 0 0 1 1.92-.75 11.35 11.35 0 0 1 7 .77 38.78 38.78 0 0 1 3.42 1.89l2.54-4.75a8.88 8.88 0 0 0 -.8-.67c-5.45-3.59-11.28-4.21-17.16-1.5-6.76 3.12-7.2 11.48-1 15.62a11.12 11.12 0 0 0 1.63 1c2.41 1.09 4.86 2.09 7.25 3.22a14.35 14.35 0 0 1 3.2 2 3.25 3.25 0 0 1 0 5 6.45 6.45 0 0 1 -3 1.49c-3.91.63-7.35-.64-10.44-3-.3-.22-.59-.46-.91-.72l-3.11 4.52c4.68 4.93 14.19 6.51 20.09 3.33zm102.41-42.52v9.82h-4.58v5.23h4.37v1.24c0 5.36 0 10.73.1 16.08s3.11 9.25 8.12 10.54a38.08 38.08 0 0 0 6.07.65 4.26 4.26 0 0 0 1-.16v-5.54h-1.76c-3.84-.05-6.27-2.11-6.91-5.89a13.14 13.14 0 0 1 -.1-2q0-7 0-14c0-.29 0-.58.06-1h8.07v-5.22h-8.11v-9.78zm-164.68-4.09h-6.53v46.21a2.09 2.09 0 0 0 0 .71c.08.2.29.49.45.5h6.06zm79.4 13.52h-6.39v32.8c0 .21-.07.46 0 .62s.34.51.53.52h5.84zm.11-13.53h-4.56c-1.94 0-1.94 0-1.94 1.93v4.6h6.5zm-177.11-125.94v230.09a38 38 0 0 0 38 38h230.12a38 38 0 0 0 38-38v-20.62h-247.66l.11-247.5h-20.57a38 38 0 0 0 -38 38.03zm326.59 209.62h-20.54l.1-247.46-247.68-.09v-20.6a38 38 0 0 1 38-38h230.1a38 38 0 0 1 38 38v230.12a38 38 0 0 1 -37.98 38.03z" fill="#fff"/></svg>