<svg height="44" viewBox="0 0 180 44" width="180" xmlns="http://www.w3.org/2000/svg" xmlns:xlink="http://www.w3.org/1999/xlink"><radialGradient id="a" cx="50%" cy="47.926805%" gradientTransform="matrix(.094294 0 0 1 .452853 0)" r="521.227626%"><stop offset="0" stop-color="#a7a9ac"/><stop offset=".09376" stop-color="#b2b4b6"/><stop offset=".49555" stop-color="#dcdcde"/><stop offset=".81133" stop-color="#f5f6f6"/><stop offset="1" stop-color="#fff"/></radialGradient><linearGradient id="b"><stop offset="0" stop-color="#ed1c24"/><stop offset="1" stop-color="#c72030"/></linearGradient><linearGradient id="c" x1="42.306774%" x2="58.493214%" xlink:href="#b" y1="1.862363%" y2="95.454796%"/><linearGradient id="d"><stop offset="0" stop-color="#fff"/><stop offset=".19038" stop-color="#e9c3c6"/><stop offset=".40128" stop-color="#d4878e"/><stop offset=".59539" stop-color="#c35862"/><stop offset=".76608" stop-color="#b73642"/><stop offset=".90673" stop-color="#b0212e"/><stop offset="1" stop-color="#ad1a27"/></linearGradient><linearGradient id="e" x1="5.645562%" x2="97.184334%" xlink:href="#d" y1="39.606036%" y2="61.156911%"/><linearGradient id="f" x1="8.002534%" x2="95.126971%" y1="38.480366%" y2="55.888138%"><stop offset="0" stop-color="#fff"/><stop offset=".16492" stop-color="#edccce"/><stop offset=".38604" stop-color="#d68d93"/><stop offset=".58815" stop-color="#c45b65"/><stop offset=".76427" stop-color="#b83843"/><stop offset=".90752" stop-color="#b0222e"/><stop offset="1" stop-color="#ad1a27"/></linearGradient><linearGradient id="g" x1="50.000002%" x2="50.000002%" xlink:href="#b" y1="2.386492%" y2="97.372758%"/><linearGradient id="h"><stop offset="0" stop-color="#ad1a27"/><stop offset=".09248" stop-color="#b0222e"/><stop offset=".23573" stop-color="#b83843"/><stop offset=".41185" stop-color="#c45b65"/><stop offset=".61396" stop-color="#d68d93"/><stop offset=".83508" stop-color="#edccce"/><stop offset="1" stop-color="#fff"/></linearGradient><linearGradient id="i" x1="41.587084%" x2="60.13048%" xlink:href="#h" y1="23.979127%" y2="74.699819%"/><linearGradient id="j" x1="65.198945%" x2="44.204035%" xlink:href="#h" y1="15.937781%" y2="91.970031%"/><linearGradient id="k" x1="42.148019%" x2="60.285273%" xlink:href="#d" y1="41.947622%" y2="60.547802%"/><linearGradient id="l" x1=".059616%" x2="100%" xlink:href="#d" y1="49.999999%" y2="49.999999%"/><g fill="none" transform="translate(0 4)"><g fill="#808285"><path d="m48.8387892 26.0695157h-2.0610134v6.381713h-.8360718v-6.381713h-2.0560358v-.7567265h4.953121z"/><path d="m54.2520269 30.1064395h-3.5986547c-.0186913.4801461.1448097.9496109.457722 1.314269.3173191.3190052.7556923.4874341 1.2049775.4629686.5772126-.0010479 1.1363457-.2014416 1.5828162-.5672825v.7664664c-.5254283.3475716-1.1480225.5184916-1.7772646.4879103-.6410779.0330213-1.2634826-.2215831-1.6976233-.6944395-.4112287-.4632376-.6169686-1.1146009-.6172197-1.9540896-.0298564-.7086071.2113185-1.4019802.6744753-1.9391032.4195923-.4857727 1.0332505-.7601131 1.6750493-.748843.5881615-.0337184 1.1591543.2049221 1.5484036.647139.3918378.5141714.5860579 1.1519315.5473184 1.7972287zm-.8363408-.6918296c.0212234-.3956221-.0996415-.785804-.3407892-1.1001525-.2345228-.2670222-.5784076-.4119499-.9333095-.3933363-.3704287-.0062108-.7263587.1438081-.9805829.4133004-.2790367.2963264-.4538443.675555-.4979193 1.0801884z"/><path d="m59.267435 32.2171211c-.4231341.2441454-.9055359.3665383-1.3938834.3536502-.6611397.0267485-1.301952-.2316007-1.7596682-.709426-.4568987-.5009654-.6975106-1.162075-.6694977-1.8395247-.0350681-.7432355.2243818-1.470316.7220448-2.0234529.5030842-.5188786 1.2045424-.7970833 1.9265112-.7640717.4086241-.0083631.8137575.0767441 1.1844753.2488251v.8363408c-.3527533-.2573645-.777765-.396772-1.2144215-.3983408-.489454-.0140452-.9595658.1914196-1.281713.5601793-.3465611.4095062-.5252956.9350013-.500287 1.4708879-.0287658.5140427.1394247 1.0197302.4703408 1.4141435.3241665.3494063.7855739.5385977 1.261722.5173453.4557993-.003818.8972716-.1597315 1.2543767-.4430045z"/><path d="m65.0395695 32.4512287h-.8166188v-2.9370404c0-1.0617847-.3949148-1.5928071-1.1847444-1.5930672-.3872938-.0050171-.7563927.1640516-1.0055516.4606009-.2800812.3286806-.4258925.7509051-.4083229 1.1823767v2.88713h-.8161076v-7.5470314h.8161076v3.2956951h.0199642c.3325455-.6098984.9782233-.9826317 1.6726816-.9655964 1.1482332 0 1.7224305.6919103 1.7225919 2.0757309z"/><path d="m71.1149327 32.4512287h-.8166188v-2.9070942c0-1.0820179-.3948341-1.6230224-1.1845022-1.6230134-.3901551-.0083413-.7629449.1611347-1.013166.4606009-.2734578.3241821-.4163956.7385792-.4009506 1.1624125v2.9070942h-.8163767v-5.0976592h.8163767v.8463229h.0199641c.330171-.6122105.9774086-.9858442 1.6726816-.9655964.4874879-.0303797.9610339.1694799 1.2793453.5399462.3240419.4532188.480708 1.0048693.4432466 1.5607533z"/><path d="m75.0895964 32.5707713c-.6761209.0311879-1.3331636-.2290195-1.8046009-.7146726-.4653024-.5179502-.7076485-1.1984585-.6744753-1.8939283-.0436748-.7357638.2091823-1.458365.7020807-2.0063677.5033996-.4952396 1.1912588-.7569243 1.8965381-.7215067.6673393-.0373807 1.3176358.2190338 1.7798745.7018116.4528369.5439419.6815192 1.2399269.6395515 1.9464485.0348269.7165011-.2127141 1.4180875-.6894619 1.9540896-.4825222.4988777-1.1562011.7662814-1.8495067.7341256zm.0596502-4.6496502c-.4748876-.0216581-.9334949.1755877-1.2443946.5352107-.3263469.4202861-.4891694.9446794-.4582601 1.4758924-.0290596.5173662.1361459 1.0269346.4632377 1.4288341.3141047.3509163.7688837.5426807 1.239417.5226188.4633844.0275702.9132492-.1618654 1.2173274-.5126098.30855-.421304.4591261-.9376917.4253812-1.4588072.0340634-.5256339-.1163801-1.0466766-.4253812-1.4732556-.3023403-.3536611-.7528568-.5453227-1.2173274-.5178834z"/><path d="m80.0001794 31.0276413c0 .467704.180861.7016412.5425829.7018116.1331416.0017996.2657788-.0167183.3933364-.0549148v.7370045c-.1907163.0458039-.3861302.0691731-.5822691.0696702-.1563072.0011576-.3115447-.0258957-.4582332-.0798944-.1406618-.0518944-.2675731-.1353085-.3710045-.2438475-.1100049-.1185094-.1946005-.258272-.2485829-.4106906-.0649813-.1845475-.0962147-.3792844-.0922063-.5748969v-6.2676861h.8163767z"/><path d="m84.258861 32.5707713c-.6761296.0312401-1.333193-.2289755-1.8046009-.7146726-.4654848-.5178575-.7079421-1.1984067-.6747444-1.8939283-.0435473-.735746.2092931-1.4582994.7020807-2.0063677.5034275-.4951961 1.1912668-.7568732 1.8965381-.7215067.6673557-.0374337 1.3176819.2189886 1.7799014.7018116.4528282.5439453.6815009 1.2399303.6395246 1.9464485.0347109.7164841-.212815 1.418028-.6894618 1.9540896-.4823853.4989159-1.1560024.766334-1.8492377.7341256zm.0593812-4.6496502c-.4748776-.0216024-.9334615.1756334-1.2443947.5352107-.3261674.4203543-.488798.9447453-.4577219 1.4758924-.0292301.5172988.1357832 1.0268662.4626995 1.4288341.3141086.3509109.7688849.5426742 1.2394171.5226188.4633843.0275702.9132491-.1618654 1.2173273-.5126098.3087606-.4212115.4594454-.937645.4256502-1.4588072.0341142-.5256802-.1164377-1.0467687-.4256502-1.4732556-.3023403-.3536611-.7528568-.5453227-1.2173273-.5178834z"/><path d="m92.7583587 32.0431749c0 1.8715964-.895982 2.807435-2.6879461 2.8075157-.5715103.0130405-1.1379503-.1097991-1.6527175-.3584126v-.8163497c.4977834.2969366 1.0633436.4613849 1.6427354.4776591 1.2543767 0 1.8816502-.667121 1.8818206-2.0013632v-.5573004h-.0199641c-.3414777.5508947-.9220575.9092235-1.5675778.9674955-.6455202.058272-1.280885-.1902919-1.7154984-.6711278-.4083358-.5176404-.6144495-1.166134-.5799014-1.8245381-.0394787-.740437.181383-1.471347.624296-2.066018.4169688-.5113397 1.0510868-.7955177 1.7102421-.7664394.6243685-.0340482 1.214998.2852683 1.5284395.8263318h.0199641v-.7070583h.8161076zm-.8161076-1.8965381v-.752018c.0067303-.3876524-.1411322-.7620379-.4109327-1.0404753-.2631806-.2842284-.635645-.4419022-1.0229058-.4330224-.4609396-.0204283-.902961.1848472-1.1847444.5501973-.3106948.4513042-.4613732.9936251-.428018 1.5405202-.0249058.4878002.1202386.9691267.4106637 1.3618385.2604952.3336313.6644535.523068 1.0875336.51.4270065.0136368.8375191-.1654247 1.118018-.4876681.2947212-.3479434.4482884-.7937357.4303856-1.2493722z"/><path d="m98.7743408 27.3535695-2.3447892 5.9140359c-.4180628 1.0554619-1.0054888 1.5831569-1.7622781 1.5830852-.1797197.0041858-.3591026-.0175903-.5326009-.0646547v-.7317579c.1550385.0559131.3181557.0861755.4829328.0895964.4114708 0 .7201166-.2456681.9259372-.7370044l.4083229-.9656234-1.9914081-5.0876771h.9059731l1.3786547 3.9228969c.0168161.0496681.0517668.1791121.104852.3883318h.0296771c.0168162-.0798565.0500987-.2059731.0998476-.3783498l1.448287-3.9328789z"/><path d="m109.728996 32.4512287h-.831068v-4.7891839c0-.1889327.005776-.4037757.017328-.6445291.011838-.2404305.029273-.4984574.052305-.7740807h-.019991c-.023604.0908004-.053543.1798347-.089597.2664484-.039659.0977489-.082224.1925919-.126888.2835067-.044933.091426-.086448.1734081-.124305.2467265-.038098.0730493-.065408.1276951-.082224.1644753l-1.83191 3.3847803h-.408323l-1.83191-3.3750673c-.016817-.0396592-.044664-.0969417-.084592-.1718206-.039686-.0749058-.081471-.1576682-.124305-.2490942-.043346-.0909148-.083812-.1847085-.12218-.2808968-.035369-.0875226-.064517-.177432-.087228-.2690583h-.019695c.01313.1426816.023112.3351031.029946.5772646.006565.2427982.009802.5266636.009713.8515964v4.7789327h-.806637v-7.1384395h1.045749l1.851874 3.3947355c.079884.1492466.147848.2885919.203893.4180358.049275.1098902.09089.2230572.124547.3386906h.029973c.033094-.0993094.077058-.2154439.131892-.3484036.061712-.1468504.132346-.2897898.211507-.4280179l1.846628-3.3750404h1.035498z"/><path d="m115.446484 32.4512287h-.816619v-.7966547h-.019964c-.303864.5807462-.913006.9366449-1.568125.9161973-.434749.0255107-.862366-.119132-1.192359-.4033184-.29105-.2781194-.448007-.6682551-.430655-1.0704484 0-.9522242.560978-1.5064574 1.682933-1.6626996l1.52817-.2138744c0-.866287-.350071-1.2993901-1.050215-1.2993094-.612282-.0008654-1.203746.2222004-1.662968.6271749v-.8363408c.519102-.3236182 1.121-.4895549 1.732601-.4776592 1.197874 0 1.796941.6338385 1.797201 1.9015157zm-.816619-2.5786547-1.229677.1692108c-.303098.0272042-.59594.1234681-.856062.281408-.210568.1741134-.319228.4426073-.289023.7141615-.007096.232941.090691.4567773.266422.6098475.198477.1649757.451685.2493753.709453.2364753.380236.0102722.746227-.1449195 1.003183-.4253811.267667-.2938758.409696-.6808335.395704-1.0780897z"/><path d="m119.948744 28.1799283c-.182147-.1209803-.398996-.1787683-.617192-.1644754-.356342.0041234-.685871.1900422-.87366.4929148-.253923.4005875-.37663.870378-.35104 1.3439731v2.5988879h-.81635v-5.0976592h.81635v1.0504843h.019722c.094366-.3244965.279188-.6154107.532843-.8387085.221699-.1943785.506573-.3014096.801417-.3011031.165521-.0071359.330936.0163801.48791.0693632z"/><path d="m125.372233 32.4512287h-1.145085l-2.250215-2.4491031h-.019964v2.4491031h-.816108v-7.5470314h.816108v4.7841794h.019964l2.140924-2.3348072h1.06991l-2.364242 2.4591121z"/><path d="m130.611498 30.1064395h-3.599435c-.018348.4801369.145207.9495075.457964 1.314269.317283.3189078.755539.4873255 1.204735.4629686.577303-.0009996 1.136537-.2013954 1.583086-.5672825v.7664664c-.525429.3475716-1.148023.5184916-1.777265.4879103-.640989.0329136-1.263276-.2216788-1.697381-.6944395-.411471-.4632376-.617292-1.1146009-.617462-1.9540896-.029856-.7086071.211318-1.4019802.674475-1.9391032.419806-.4857942 1.033633-.7601217 1.675588-.748843.587987-.0336089 1.15877.2050268 1.547865.647139.391999.5141122.5864 1.1518708.54783 1.7972287zm-.83661-.6918296c.021279-.3956675-.099686-.7858947-.341031-1.1001525-.234526-.2670189-.578409-.4119459-.93331-.3933363-.370419-.0061586-.726328.1438518-.980583.4133004-.278954.2963525-.453668.6755827-.49765 1.0801884z"/><path d="m134.516529 32.4013184c-.23663.1161252-.498635.1709595-.761973.1594708-.892843 0-1.339175-.4978296-1.338995-1.4934888v-3.0168968h-.876027v-.6968341h.876027v-1.2443946l.816376-.2638117v1.5082063h1.284592v.6968341h-1.284592v2.8726547c-.02255.2562578.038567.5129215.174189.7315157.147754.1591849.361372.2402336.577533.2191211.191507.0044875.379036-.0550614.53287-.1692108z"/><path d="m144.321121 32.4512287h-.995569l-1.194727-2.0011211c-.095551-.1653528-.202029-.3241451-.318726-.4753184-.091469-.1197855-.197566-.2276549-.315821-.3210941-.104256-.0812146-.222398-.1428154-.348673-.1818027-.136577-.0399927-.278374-.0593012-.420672-.0572825h-.686825v3.0366188h-.83661v-7.1384395h2.130915c.292103-.0027456.583077.0366279.863946.1169059.250643.0710649.484286.1921838.686825.3560448.195294.1607973.351155.3641972.455623.5945919.114454.2628207.170392.5473851.163937.8339731.002598.2328105-.035181.4643093-.111659.6842153-.072048.2027829-.180012.3909402-.318726.5554708-.141421.1655564-.309745.3060822-.497893.4156682-.204725.1187546-.425032.2083373-.654538.2661525v.0197219c.110566.0480218.215008.109063.311112.1818296.091711.0717481.175876.1526498.251193.2414529.085353.1003186.164333.2058889.236476.3160897.078026.1179821.165085.254879.261174.4106906zm-4.281013-6.381713v2.5880986h1.134834c.197263.0019433.393398-.0299632.579874-.0943318.17024-.0585922.326967-.150804.46087-.2711569.131401-.1207035.234962-.2685544.303498-.4332915.075238-.1821869.112519-.3778077.10956-.5748969.018248-.3387235-.118218-.6674243-.371004-.8936233-.306891-.2332499-.687985-.3472349-1.072547-.3207982z"/><path d="m149.595363 30.1064395h-3.599193c-.018352.4801422.145214.9495173.457991 1.314269.317241.3189565.755511.4873836 1.204709.4629686.577228-.0009586 1.13639-.2013628 1.582816-.5672825v.7664664c-.525396.3476433-1.148014.51857-1.777264.4879103-.640989.0329083-1.263273-.2216832-1.697382-.6944395-.411444-.4632376-.617175-1.1146009-.617192-1.9540896-.029857-.7086071.211318-1.4019802.674475-1.9391032.419666-.4858279 1.03343-.7601716 1.675318-.748843.588065-.0336081 1.15893.2050203 1.548135.647139.391928.5141373.586244 1.1518988.547587 1.7972287zm-.83661-.6918296c.021353-.3956381-.099525-.7858639-.340789-1.1001525-.234624-.2670241-.578581-.4119443-.933551-.3933363-.370339-.0061089-.726155.143899-.980341.4133004-.279241.2961885-.454082.6754892-.49792 1.0801884z"/><path d="m150.82687 32.2667892v-.8757578c.422273.3209399.938398.4940533 1.468789.4926457.717041 0 1.075525-.2389237 1.075453-.7167713.003788-.1219316-.028382-.242283-.092502-.3460628-.06593-.0990905-.150428-.1844743-.248825-.2514349-.115268-.0789619-.238894-.1449666-.368637-.1968162-.140825-.0575515-.29252-.1180717-.455085-.1815605-.203239-.07931-.401921-.1698347-.59513-.271157-.156985-.0812309-.301128-.1851748-.427776-.3084753-.11227-.1111115-.20038-.244215-.258807-.3909686-.061509-.1638511-.091205-.3379293-.087498-.5129058-.004194-.2226521.0527-.4421971.164502-.6347893.110128-.1846265.259694-.3426357.438-.4627264.190979-.1282417.402207-.2233769.624807-.2814081.236274-.0631505.479846-.0948589.724413-.0943049.406499-.0068411.809971.0710073 1.184744.2285919v.8266009c-.385292-.2485704-.835865-.3768064-1.294305-.3683677-.139443-.001798-.278459.0157964-.413058.052278-.113178.030204-.220225.0799078-.316332.1468789-.084267.0590516-.153991.1365048-.203892.2264933-.048674.0893388-.073648.1896583-.072538.2913901-.00386.1153585.02107.2298623.072538.3331749.051828.0942951.123983.1758799.211238.2388431.104792.0766556.218525.1402713.33869.1894439.1327.0565023.283695.1179014.452987.1841973.206848.0782106.409521.1670463.607211.2661525.165703.0822496.319794.1860656.45826.3087444.123182.1105118.222281.2452118.291121.395704.071698.1682968.10655.3499885.102215.53287.005666.2301957-.052061.4575189-.16687.6571211-.111497.1860614-.263884.3443011-.445614.4627264-.196687.1276233-.413932.2203302-.642162.2740359-.249448.0605394-.505313.0906242-.762.0895964-.472677.0118714-.941037-.0925125-1.363937-.3039821z"/><path d="m159.864511 30.1064395h-3.599193c-.018479.4801613.145103.9495815.457991 1.314269.317269.3189127.755519.4873319 1.204709.4629686.577302-.0009996 1.136536-.2013954 1.583085-.5672825v.7664664c-.525428.3475716-1.148022.5184916-1.777264.4879103-.640998.032962-1.263304-.2216385-1.697382-.6944395-.41147-.4632376-.617291-1.1146009-.617461-1.9540896-.029894-.7086595.211393-1.4020768.674744-1.9391032.419485-.4857627 1.033059-.7601097 1.67478-.748843.588239-.0337176 1.159314.2049155 1.548673.647139.39171.5142368.585915 1.1519484.547318 1.7972287zm-.836341-.6918296c.020965-.39559-.099872-.7856844-.340789-1.1001525-.234668-.2669793-.578609-.411889-.933578-.3933363-.370419-.0061586-.726329.1438518-.980583.4133004-.278954.2963525-.453668.6755827-.49765 1.0801884z"/><path d="m165.054108 32.4512287h-.816619v-.7966547h-.019722c-.303794.5806707-.912807.9365618-1.56783.9161973-.434767.0256526-.862437-.1190077-1.192359-.4033184-.29106-.2781123-.448018-.668253-.430654-1.0704484 0-.9522242.560798-1.5064574 1.682394-1.6626996l1.528171-.2138744c0-.866287-.350072-1.2993901-1.050215-1.2993094-.612113-.0008218-1.203393.2222469-1.662431.6271749v-.8363408c.518936-.3235468 1.120641-.4894819 1.732063-.4776592 1.197874 0 1.796942.6338385 1.797202 1.9015157zm-.816619-2.5786547-1.229166.1692108c-.303246.0272662-.59624.1235227-.856574.281408-.210297.1742792-.318731.4427153-.288484.7141615-.007084.2328819.090586.4566783.266152.6098475.198469.1649714.451668.2493708.709426.2364753.380306.0102261.746361-.1449513 1.003453-.4253811.267306-.2940619.409121-.6809365.395193-1.0780897z"/><path d="m169.556637 28.1799283c-.182265-.1209423-.399186-.1787241-.617462-.1644754-.356285.0040693-.685757.1900135-.87339.4929148-.25426.4004511-.377083.8703226-.35131 1.3439731v2.5988879h-.816349v-5.0976592h.816349v1.0504843h.019722c.094366-.3244965.279188-.6154107.532843-.8387085.221699-.1943785.506573-.3014096.801417-.3011031.165608-.0071089.331106.0164059.48818.0693632z"/><path d="m174.22313 32.2171211c-.423156.2441162-.905558.3665068-1.39391.3536502-.661149.0268484-1.301993-.2315174-1.759642-.709426-.45709-.5008658-.697815-1.1620206-.669766-1.8395247-.035044-.7431836.224295-1.4702233.721775-2.0234529.50317-.5187511 1.204568-.796932 1.926512-.7640717.408799-.0083897.814114.0767169 1.185013.2488251v.8363408c-.3529-.2572962-.777982-.3966929-1.214717-.3983408-.489504-.0139418-.959648.1914982-1.281956.5601793-.346336.4096334-.525039.9350375-.500287 1.4708879-.028509.5140084.139651 1.019604.470341 1.4141435.324271.3494181.785764.538604 1.261991.5173453.45589-.0037709.897462-.1596863 1.254646-.4430045z"/><path d="m179.995265 32.4512287h-.816646v-2.9370404c0-1.0617847-.394825-1.5928071-1.184476-1.5930672-.387393-.0051269-.756619.1639548-1.00582.4606009-.28007.3286873-.425879.750907-.408323 1.1823767v2.88713h-.81635v-7.5470314h.81635v3.2956951h.019991c.332534-.6098963.978204-.9826308 1.672655-.9655964 1.147991 0 1.722197.6919103 1.722619 2.0757309z"/></g><path d="m46.1390314 6.11004484c-1.5021525 1.51294171-2.2533632 3.48524664-2.2533632 5.91691476 0 2.2835875.6680896 4.1110314 2.004269 5.4823319 1.3358206 1.3718385 3.1702691 2.0576233 5.5033453 2.0573543 1.788565 0 3.2378206-.2687086 4.3477668-.8061256v-3.1280718c-1.1121992.651001-2.3801719.9880844-3.6688251.9753364-1.4002063 0-2.5137489-.4364305-3.3406278-1.3092915-.8268699-.8731211-1.2403498-2.0449059-1.2404394-3.5153543 0-1.5336861.4381793-2.74961434 1.3145381-3.64778474.8765381-.89757848 2.0288789-1.34644843 3.4570224-1.34660987 1.2211413-.02100898 2.4245157.29442559 3.4783318.91175785v-3.29782063c-1.2090214-.40458142-2.4794614-.59469851-3.7539551-.56176681-2.396287 0-4.3456413.75637668-5.8480628 2.26913004z" fill="#231f20"/><path d="m63.3868789 8.17765022c-1.8313901 0-3.2842421.50729148-4.358556 1.52187444-1.0746458 1.01448434-1.6119821 2.41950674-1.6119821 4.21506724 0 1.739139.5178834 3.1158745 1.5536502 4.1302063 1.0352556 1.0147265 2.4579731 1.522009 4.2681525 1.5218476 1.8376951 0 3.2851121-.5231391 4.3422511-1.5694171 1.0567803-1.0460179 1.5851839-2.4704843 1.5851839-4.2733991 0-1.6684843-.5124574-3.0099193-1.5373722-4.02430494-1.0249776-1.01424215-2.4387534-1.52153363-4.2413274-1.52187444zm-.042565 8.82269058c-1.6826637 0-2.5239103-1.0426906-2.5237399-3.1280717 0-.996861.2190493-1.7674261.657148-2.3116951.4501472-.5501372 1.1351557-.8533234 1.8450403-.8166188 1.6190852 0 2.4285381 1.0144843 2.4283588 3.0434529 0 2.1419731-.8022691 3.2129327-2.4068072 3.2129327z" fill="#231f20"/><path d="m78.3169776 14.65687c.0339638.6176284-.1582773 1.2264715-.5407534 1.7126098-.3588293.4199705-.8902654.6524311-1.4422332.630861-1.2160358 0-1.8239551-.7669686-1.8237578-2.3009058v-6.25641258h-3.3403857v6.55304928c0 3.0471391 1.2583229 4.570574 3.7749686 4.570574 1.3854888 0 2.4918476-.6398027 3.3190763-1.919408h.0530852v1.6543049h3.3403587v-10.85852018h-3.3403587z" fill="#231f20"/><path d="m91.360009 8.17765022c-1.4433422-.04750849-2.791307.71875483-3.4888251 1.98325558h-.0425651v-1.71788338h-3.3506367v10.85852018h3.3506367v-6.1928072c-.0240656-.6149434.1757121-1.2177467.5622781-1.6966009.3475174-.4329194.8764462-.6798119 1.4314708-.6681793 1.2018296 0 1.8026547.8413273 1.8024753 2.523982v6.0336054h3.3406279v-6.6486996c0-2.98356049-1.2018207-4.47529143-3.6054619-4.47519278z" fill="#231f20"/><path d="m101.741327 5.1452287-3.3406274.95432287v2.34347085h-1.7599104v2.47065468h1.7599104v4.9731121c0 2.4533274 1.1806367 3.6798565 3.5419104 3.6798565.996888 0 1.742753-.1307623 2.237596-.392287v-2.4814439c-.332132.1932039-.707854.2989793-1.092.307426-.898358 0-1.347318-.5655247-1.346879-1.696574v-4.3900897h2.438879v-2.47065468h-2.438879z" fill="#231f20"/><path d="m110.849919 8.17765022c-1.450098-.03144505-2.848097.54089319-3.859829 1.58020628-1.046287 1.0536323-1.569444 2.4815964-1.569444 4.2838924 0 1.7391659.48426 3.0947982 1.45278 4.0668968.968502.9719193 2.329381 1.458 4.082637 1.458 1.604879 0 2.909184-.2687085 3.912915-.8061255v-2.4175695c-.947417.5772764-2.040166.8715646-3.149355.8481524-1.873426 0-2.866717-.7881704-2.979874-2.3645112h7.083794v-1.4101883c0-1.6119821-.433014-2.8880807-1.299041-3.82829598-.866287-.94011659-2.091148-1.41026905-3.674583-1.4104574zm-2.131453 4.59158748c.063624-.6147502.313316-1.1954505.715722-1.6645292.340928-.4209161.853028-.6662569 1.394691-.6681794 1.258332 0 1.887453.7775696 1.887363 2.3327086z" fill="#231f20"/><path d="m121.210224 10.4575426h-.042565v-2.01452018h-3.35061v10.85852018h3.35061v-5.185426c0-.9188341.205032-1.6452556.615094-2.1792646.403293-.5307026 1.041213-.8298762 1.707121-.8006098.490343-.0110565.975523.1020154 1.410458.3287085v-3.08550675c-.264779-.09597269-.545786-.13917991-.827166-.12718386-1.378386 0-2.3327.73509417-2.862942 2.20528251z" fill="#231f20"/><path d="m133.340987 8.17765022c-1.420069-.04270225-2.753066.68273569-3.488314 1.89839458h-.042565v-1.63302238h-3.351148v15.85291478h3.351148v-6.2564125h.042565c.655622 1.0029973 1.793208 1.5839868 2.990125 1.527121 1.382484.0471472 2.705795-.5624298 3.56844-1.6437847.894134-1.0956592 1.341094-2.5484126 1.341094-4.3582601 0-1.6611121-.383534-2.9742601-1.150601-3.93944395-.766709-.96484305-1.853623-1.44734529-3.260744-1.44750673zm.344986 7.93748878c-.401036.5803524-1.071658.914516-1.776484.8852018-.601878.019036-1.17821-.2436757-1.558628-.7104753-.411749-.5203003-.622535-1.171386-.593839-1.8342781v-.869704c-.03651-.7433508.1949-1.4751292.652171-2.0623318.40829-.5074381 1.029703-.7956637 1.680807-.7795964 1.484825 0 2.227103.9543139 2.226834 2.8629417 0 1.0820179-.210287 1.9180986-.630861 2.5082421z" fill="#231f20"/><path d="m145.249426 8.17765022c-1.830592 0-3.283256.50729148-4.357991 1.52187444-1.074673 1.01448434-1.611919 2.41950674-1.61174 4.21506724 0 1.739139.517803 3.1158745 1.553408 4.1302063 1.035767 1.0147265 2.458475 1.522009 4.268126 1.5218476 1.837964 0 3.285381-.5231391 4.342251-1.5694171 1.057049-1.0460179 1.585453-2.4704843 1.585453-4.2733991 0-1.6684843-.512547-3.0099193-1.537642-4.02430494-1.025246-1.01424215-2.439201-1.52153363-4.241865-1.52187444zm-.042565 8.82269058c-1.682126 0-2.523283-1.0426906-2.523471-3.1280717 0-.996861.21931-1.7674261.657928-2.3116951.450049-.5502668 1.135127-.8534837 1.845041-.8166188 1.618305 0 2.427677 1.0144843 2.428116 3.0434529 0 2.1419731-.802538 3.2129327-2.407614 3.2129327z" fill="#231f20"/><path d="m157.656054 17.0216233c-.331041.0148845-.652226-.1147422-.880197-.3552376-.238424-.2937551-.35588-.6673605-.32844-1.0446996v-7.17866368h-3.329596v7.92121078c-.006611.4542581.065205.9062511.212287 1.3360897.128497.374838.332275.7194462.598816 1.0126547.25964.2804122.578456.4994975.933309.6413542.386243.1526974.798617.2283958 1.21391.2228341.47017.0012841.939782-.0324414 1.404942-.1008968.43048-.0633097.857199-.1499757 1.278269-.2596144v-2.3542601c-.18417.0354888-.367587.0709507-.551758.1061704-.181734.0352386-.366423.0530057-.551542.0530583z" fill="#231f20"/><path d="m154.825184 6.72516592c.510105.02222912 1.009239-.15246207 1.394152-.48793722.354079-.31786526.550079-.77561895.535749-1.2512287.014059-.46949524-.182439-.92070598-.535749-1.23021525-.818711-.63619952-1.964616-.63619952-2.783327 0-.356058.30790384-.554647.75969529-.540753 1.23021525-.007611.47078687.189728.92164738.540753 1.23546188.379386.34307946.878068.52389774 1.389175.50370404z" fill="#231f20"/><path d="m167.05157 8.17765022c-1.443343-.04750849-2.791307.71875483-3.488826 1.98325558h-.042565v-1.71788338h-3.350636v10.85852018h3.350636v-6.1928072c-.023937-.6149252.175826-1.2176848.562278-1.6966009.347663-.4328846.876651-.6797584 1.43174-.6681793 1.201561 0 1.802386.8413273 1.802476 2.523982v6.0336054h3.340385v-6.6486996c0-2.98356049-1.201829-4.47529143-3.605488-4.47519278z" fill="#231f20"/><path d="m179.871767 10.9136771v-2.47065468h-2.438852v-3.29779372l-3.340655.95432287v2.34347085h-1.75991v2.47065468h1.75991v4.9731121c0 2.4533274 1.180727 3.6798565 3.542179 3.6798565.996888 0 1.742664-.1307623 2.237328-.392287v-2.4814439c-.332118.1932363-.707849.2990141-1.092.307426-.89809 0-1.347041-.5655247-1.346852-1.696574v-4.3900897z" fill="#231f20"/><path d="m0 38.5189776c0 .9330134 8.01578475 1.6884215 17.9036771 1.6884215 9.8847175 0 17.9002601-.7554081 17.9002601-1.6884215 0-.9322601-8.0155426-1.6876682-17.9002601-1.6876682-9.88789235 0-17.9036771.7554081-17.9036771 1.6876682z" fill="url(#a)"/><path d="m17.6485291 17.0505202c-.180539-.0007004-.3603331-.023195-.5354798-.0669955-.4124678-.0995348-.7855621-.3205888-1.0709865-.6345471-.2655123-.2918352-.480497-.6259062-.6361076-.9884664-.1498247-.3475402-.2512375-.7140005-.3013991-1.0891211-.0511825-.3239909-.0420882-.6546484.0268251-.9753363.0634896-.2390739.1620387-.467426.2924394-.6776233.1492688-.2465465.3451637-.4616333.5767265-.6332287.2483069-.1819481.5294471-.3141768.8279462-.3894081.1592517-.0412675.3231576-.0618405.4876681-.0612248.2049299.0016968.4089041.028158.6074799.0788212.4915953.1050962.9538119.3177675 1.3534439.6227355.3171058.2450719.5757586.5575801.7572377.9149058.15629.314815.2454921.6586591.2619551 1.0097489.0172413.288693-.0068221.5783689-.0714619.8602601-.0753928.2714745-.1990121.5271707-.3649506.7548699-.1883402.2700665-.4185079.5083994-.6818476.7060359-.2786934.2107166-.5915488.3719361-.9248879.4766099-.1957375.0609915-.399581.0919641-.6046009.0919641z" fill="url(#c)"/><path d="m15.5015785 13.3877758c.0542707-.2022772.1382136-.3953966.2490941-.5730673.1236293-.2042253.2861021-.3822288.4782243-.5239372.2090366-.1528892.445779-.2637218.6970762-.3263408.2987807-.0700703.6104264-.0634712.9059731.0191838.4368748.09278.8481541.280039 1.2049776.5486368.27374.209906.4972416.4781981.6542421.7853543.1336114.2675229.2099458.5599764.2241256.8586726.0158483.2525441-.0045928.506056-.0606996.7527982-.0641404.2266365-.1685393.4398818-.3082062.6295426-.1653135.2373556-.3676645.4466289-.5993274.6198296-.2435235.1843159-.5170372.3252097-.8084933.4164754-.3036186.0927287-.6270588.0990918-.9340897.0183766-.3394726-.081354-.6465131-.2632116-.8810044-.5218116-.2371154-.2602594-.4289543-.5584037-.5675516-.8820538-.1359075-.3149762-.227854-.6471462-.2732556-.9871749-.0441549-.2770203-.0377464-.5597492.0189148-.8344843z" fill="#ed1c24"/><path d="m.91673543.39992825c.09043953-.0477703.18634249-.0843878.28560538-.10904933.10951457-.0294611.22341962-.03907469.33632287-.02838565.11403944.01053987.22482059.04377422.32582959.09774888.11206244.06018864.20308583.1531457.26090583.26644843.09456845.15693012.147221.33553002.15290583.51866368.00175614.15175829-.03141261.3018876-.0969417.43878027-.06241236.12688305-.14836751.24075034-.25329148.3355426-.08943484.08566633-.1883422.16086011-.29480718.22412556-.10222147.05221469-.21155921.08912898-.32451121.10956054-.13385004.0272223-.27090228.03518613-.40700448.02365022-.13519207-.01083358-.26752376-.04477878-.39123767-.10035874-.12083513-.05406184-.22008546-.14703205-.28191928-.26408072-.0703516-.12736912-.09431608-.27520714-.06780269-.41827803.02764181-.15599947.08119776-.30627259.15844843-.44459192.07782704-.14181402.17355243-.27304082.28482511-.3904574.09032333-.10194781.19577856-.18940822.31267265-.25931839z" fill="url(#e)" opacity=".35" transform="translate(15.605381 11.838565)"/><path d="m4.04085202.72336323c-.01201125-.19719211-.05209214-.39166235-.11903139-.57753363-.01732736.06096861-.02362332.12586547-.04598206.18551569-.12412975.32354499-.304332.62267071-.53233184.88364126-.19754361.23376286-.42140071.44395108-.66713005.62639462-.23254215.16091653-.48692587.28770973-.75540807.37652018-.31465917.1101689-.64289759.1768214-.97560538.19810762-.23570863.01283543-.47210223-.00322111-.70391031-.04781166.06357239.09430454.13289663.18460128.20757847.27037668.23449136.25860005.54153181.44045757.88100448.52181166.30703082.08071517.63047109.07435201.93408969-.01837668.29145604-.09126563.56496976-.23215947.80849327-.41647534.23166288-.17320076.43401395-.38247401.59932736-.61982959.13966691-.1896608.24406583-.40290618.30820628-.62954261.05610677-.24674222.07654791-.5002541.06069955-.7527982z" fill="url(#f)" opacity=".85" transform="translate(15.874439 13.452915)"/><path d="m17.4690673 35.0112987c-2.2695902 0-4.5150385-.4658153-6.5971749-1.3690027-4.70063679-2.0279462-8.02025114-5.9424216-8.87997312-10.4717489-.89335426-4.7082511.24723767-9.8642422 3.12990135-14.14579374 2.80304933-4.16303139 8.43304037-9.02475336 15.07460987-9.02475336.5163635 0 1.0322703.03070014 1.5449865.09196413 2.1890045.26303139 5.0485292 1.41255605 5.9035157 3.78704932.9543229 2.65170404-.4923766 6.15866365-2.4425381 8.01737225-.6610762.6300807-1.346852.9495874-2.0384394.9495874-.3626666-.0032549-.7202594-.0855715-1.0478476-.2412108-.8544753-.3943856-1.5906995-1.9196771-1.5378834-2.81434974.0556951-.94170404.6463588-1.33686996 1.1674171-1.6855426.3766558-.1991808.6837563-.50829902.8804663-.88625113.2538296-.60013453.2643229-1.09517488.0312646-1.471426-.3576054-.57699552-1.3140269-.95432287-2.6240987-1.03498655-.1939103-.01208072-.3904574-.01813453-.5846098-.01813453-5.6391928 0-10.17535428 5.01909417-11.58029599 9.74155155-1.52397309 5.1218206-.06147982 11.874565 5.65022419 14.3005561 1.4071414.5904614 2.9192722.8898856 4.4452467.8802242 3.9804215 0 7.813991-1.9004933 10.0037757-4.959713 2.1272287-2.9712108 2.8424395-6.2374709 2.1267175-9.7081884l-.0289237-.1400448c-.1500038-1.0044885-.4920238-1.9706965-1.0073812-2.8458565-.1381396-.282111-.3632526-.5123832-.6421614-.6568789-.3376356-.1560727-.579692-.4648998-.650583-.8300449-.0984312-.3985536-.0085491-.82023491.2438475-1.14400894.2357251-.29442182.5934523-.46447961.9706009-.46140807l.0336323.00026906c2.3999731.05806278 3.4777938 2.41915695 4.148852 4.46994615 1.1613633 3.5526727 1.2491301 6.5301794.2932198 9.9556682-2.1821569 6.9883517-8.6639627 11.738715-15.9850493 11.7151552z" fill="url(#g)"/><path d="m32.7996054 13.4589686c-.6479462-1.9808879-1.6300897-4.15490582-3.795713-4.20718385-.2823878-.00480528-.5502192.12501594-.7213873.34966552-.1711682.22464958-.2252552.51732993-.14568.78831653.1702601.7383229.6941704.3786189 1.2548879 1.3875875.7262422 1.3077309.8224305 1.8642242 1.0762332 3.0941704.7399103 3.5873542-.0336323 6.9947354-2.190296 10.0071928-3.2489327 4.537991-9.7877758 6.3833004-14.9080359 4.2085022-5.72720174-2.432556-7.52260085-9.1950134-5.86673538-14.7603767 1.59858296-5.37328246 6.65577578-10.3590134 12.55404488-9.99535421 1.8329596.11297758 3.8377668.86550673 2.9204932 3.03556951-.4937219 1.16714798-1.9383228 1.08990134-2.0184753 2.44595515-.0441256.74833185.6182691 2.12305825 1.3171749 2.44544395 1.0108251.4666547 1.8960269.0930135 2.6632735-.6382332 1.8505561-1.76383855 3.2499821-5.10185649 2.3466458-7.61192824-.781426-2.17084305-3.4812108-3.28439461-5.5900628-3.53768609-6.4584484-.77644844-12.79471749 3.62386547-16.25779373 8.76723766-2.70661883 4.02010767-3.98044843 9.07259197-3.0715695 13.86150677.89386547 4.7093004 4.34564125 8.3331928 8.65635873 10.1926816 4.247625 1.8235517 9.0681978 1.7664497 13.2714353-.1572067s7.3973707-5.5345698 8.7937127-9.9411431c.9632556-3.4504574.8255785-6.3283857-.2885112-9.7347175z" fill="#ed1c24"/><path d="m4.44734529 2.55080717c-.36401066-1.00991032-1.13267407-1.82227837-2.12093273-2.24152466-.54048431-.19366816-1.67873543.04307623-2.26625112 0 2.26625112.08432287 3.4906547 1.24097758 2.7378834 3.02190135-.49372197 1.16714798-1.93832287 1.08990134-2.01847533 2.44595515-.04412556.74833184.61826906 2.1230583 1.31717488 2.44544395.11435943.05297832.23280639.09664461.35418835.13057399 1.31744394-1.55284305 2.57682511-3.85956054 1.99641255-5.80234978z" fill="url(#i)" opacity=".85" transform="translate(20.179372 4.035874)"/><path d="m13.4274081.8132287c-.063839-.22412337-.1406868-.44433535-.2301525-.6595157.0483498 1.40784754.0173274 2.60179373.0041973 4.00041256-.0236502 2.52688789-.0341704 4.39506727-.7625112 6.50101344-.7309776 2.1146368-1.8466278 3.4743767-3.27177578 5.1938206-1.60070852 1.9314888-3.90320179 3.3724305-6.18992825 4.6727893-.89248905.4926972-1.81259318.9336235-2.75574888 1.3205919 6.31065146-.8228238 11.57306721-5.2272928 13.49443051-11.2943946.9632556-3.45045741.787722-6.33234082-.2885112-9.7347175z" fill="url(#j)" opacity=".85" transform="translate(19.372197 12.64574)"/><path d="m9.55549776 4.22639462c.56098654-.4075426 3.77233184-2.6879731 4.00619734-4.0209148-5.36962335.52471749-10.36899555 4.27525561-13.35045743 8.59700448.8694353-.22413098 1.72192263-.50949823 2.55107623-.85396412 2.4068845-.96079211 4.68801801-2.21067222 6.79318386-3.72212556z" fill="url(#k)" opacity=".35" transform="translate(5.381166 .269058)"/><path d="m1.27092377 5.72695964c.45436389.88459572 1.10735982 1.65198658 1.90783856 2.24206278.99269058.69260987 2.328 1.36525561 3.46466368 1.57415247 1.51345291.27799103 4.93974889-.23069059 6.19121969-1.20656502l.0026368-.00236772c-2.1844278.33857387-4.41987492.07166773-6.46318385-.7716861-3.31514798-1.40808968-5.31021524-4.26764125-6.08375784-7.50551569-.23426678 1.94518931.10664188 3.91638874.98058296 5.66991928z" fill="url(#l)" opacity=".35" transform="translate(6.995516 21.524664)"/></g></svg>